<?xml version="1.0" encoding="UTF-8"?>
<svg xmlns="http://www.w3.org/2000/svg" width="1200" height="900" viewBox="0 0 1200 900" role="img" aria-label="房型能量測驗">
  <rect width="1200" height="900" fill="#F6F3EE"/>
  <rect x="70" y="70" width="1060" height="760" rx="44" fill="#FFFDF8" stroke="#DED6CA" stroke-width="3"/>
  <rect x="70" y="70" width="1060" height="88" rx="44" fill="#7C5CFF"/>
  <text x="96" y="126" font-size="24" fill="#FFFFFF" font-weight="850" letter-spacing="2">T018 · 旅行人格測驗</text>
  <text x="96" y="235" font-size="58" fill="#1C1915" font-weight="900">房型能量測驗</text>
  <text x="98" y="290" font-size="28" fill="#716B63" font-weight="700">從住宿需求反推你這趟旅行要補什麼。</text>
  <rect x="760" y="190" width="270" height="470" rx="34" fill="#FFFFFF" stroke="#DED6CA" stroke-width="3"/>
  <rect x="788" y="232" width="214" height="42" rx="18" fill="#1C1915"/>
  <rect x="790" y="306" width="186" height="16" rx="8" fill="#7C5CFF"/>
  <rect x="790" y="338" width="126" height="16" rx="8" fill="#DED6CA"/>
  <circle cx="895" cy="420" r="92" fill="#7C5CFF"/>
  <text x="895" y="440" font-size="58" text-anchor="middle" fill="#FFFFFF" font-weight="900">88</text>
  <rect x="815" y="552" width="160" height="46" rx="23" fill="#7C5CFF"/>
  <text x="895" y="582" font-size="18" text-anchor="middle" fill="#FFFFFF" font-weight="900">Open ChillOut</text>
  <rect x="62" y="322" width="140" height="25" rx="12.5" fill="#FFFFFF"/><text x="78" y="339" font-size="13" fill="#7C5CFF" font-weight="800">住宿需求</text><rect x="62" y="362" width="166" height="25" rx="12.5" fill="#FFFFFF"/><text x="78" y="379" font-size="13" fill="#7C5CFF" font-weight="800">房型排序</text><rect x="62" y="402" width="192" height="25" rx="12.5" fill="#FFFFFF"/><text x="78" y="419" font-size="13" fill="#7C5CFF" font-weight="800">預算分配</text>
  <path d="M109 656 C236 596 325 742 460 666 S686 570 796 654" fill="none" stroke="#7C5CFF" stroke-width="8" stroke-linecap="round" opacity=".72"/>
  <circle cx="110" cy="656" r="13" fill="#7C5CFF"/>
  <circle cx="462" cy="666" r="13" fill="#7C5CFF"/>
  <circle cx="796" cy="654" r="13" fill="#7C5CFF"/>
</svg>